<?xml version="1.0"?>
<svg width="96.00000000000001" height="96.00000000000001" xmlns="http://www.w3.org/2000/svg" xmlns:svg="http://www.w3.org/2000/svg">
 <g class="layer">
  <title>Layer 1</title>
  <path d="m21.55,20.73a3,3 0 0 0 3,-3l0,-4.5a3,3 0 0 0 -3,-3l-15,0a3,3 0 0 0 -3,3l0,4.5a3,3 0 0 0 3,3l15,0zm-18,-10.85l0,-4.15a3,3 0 0 1 3,-3l5.38,0a2.25,2.25 0 0 1 1.59,0.66l2.12,2.12c0.14,0.14 0.33,0.22 0.53,0.22l5.38,0a3,3 0 0 1 3,3l0,1.15a4.48,4.48 0 0 0 -3,-1.15l-15,0a4.48,4.48 0 0 0 -3,1.15z" fill="#faff7a" id="svg_2" stroke="#dbbc40"/>
  <path clip-rule="evenodd" d="m20,20.9c0,-2.17 1.9,-3.94 4.24,-3.94s4.24,1.77 4.24,3.94s-1.9,3.94 -4.24,3.94s-4.24,-1.76 -4.24,-3.94zm5.8,-0.73a0.33,0.3 0 1 0 -0.53,-0.36l-1.41,1.83l-0.7,-0.65a0.33,0.3 0 0 0 -0.46,0.43l0.98,0.91a0.33,0.3 0 0 0 0.5,-0.04l1.63,-2.12l-0.01,0z" fill="#59ba59" fill-rule="evenodd" id="svg_1"/>
 </g>
</svg>